<?xml version="1.0" standalone="no"?>
<!DOCTYPE svg PUBLIC "-//W3C//DTD SVG 20010904//EN"
 "http://www.w3.org/TR/2001/REC-SVG-20010904/DTD/svg10.dtd">
<svg version="1.0" xmlns="http://www.w3.org/2000/svg"
 width="200.000000pt" height="200.000000pt" viewBox="0 0 200.000000 200.000000"
 preserveAspectRatio="xMidYMid meet">

<g transform="translate(0.000000,200.000000) scale(0.100000,-0.100000)"
fill="#000000" stroke="none">
<path d="M500 1544 c-144 -39 -258 -164 -290 -318 -19 -93 7 -222 60 -296 33
-46 34 -31 3 36 -23 50 -27 73 -27 144 0 110 32 187 108 259 64 60 113 85 192
101 163 32 344 -70 405 -228 43 -112 22 -267 -47 -347 l-25 -30 6 35 c3 19 10
37 15 38 18 6 11 22 -10 22 -14 0 -22 -10 -28 -32 -4 -18 -12 -33 -18 -32 -25
2 -94 39 -94 50 0 7 -11 26 -25 41 -25 28 -25 28 -41 8 -8 -11 -18 -32 -21
-47 -8 -40 -22 -24 -22 25 0 23 -3 59 -7 79 -6 35 -4 38 30 52 43 18 49 51 12
66 -13 5 -27 14 -31 19 -9 16 -58 14 -52 -1 15 -38 16 -50 2 -25 -19 34 -32
34 -47 2 -13 -29 1 -51 35 -58 12 -2 7 -3 -10 -1 -18 1 -33 -1 -33 -5 0 -5
-21 -35 -46 -67 -54 -69 -94 -148 -94 -186 0 -37 -15 -35 -29 3 -9 26 -7 39 9
77 24 53 26 105 5 122 -13 11 -15 8 -15 -14 0 -14 -4 -26 -9 -26 -16 0 -53
-73 -48 -97 2 -13 0 -20 -6 -16 -13 8 -1 -55 14 -73 26 -31 82 -45 195 -50
121 -4 126 -2 98 41 -11 17 -14 36 -9 63 l6 39 41 -20 c51 -26 65 -55 46 -94
l-15 -30 60 -1 60 -2 69 73 c37 39 82 99 99 133 155 311 -133 659 -471 568z
m58 -656 c14 -14 17 -102 3 -94 -5 3 -7 15 -4 26 8 30 -5 68 -25 73 -13 4 -13
5 -1 6 8 0 20 -4 27 -11z m187 -88 c3 -5 1 -10 -4 -10 -6 0 -11 5 -11 10 0 6
2 10 4 10 3 0 8 -4 11 -10z"/>
<path d="M1180 1040 c0 -207 2 -240 15 -240 13 0 15 33 15 240 0 207 -2 240
-15 240 -13 0 -15 -33 -15 -240z"/>
<path d="M1291 1169 c-6 -18 -11 -47 -11 -65 0 -27 4 -34 20 -34 11 0 20 7 20
15 0 8 7 15 15 15 8 0 15 -7 15 -15 0 -8 9 -15 20 -15 17 0 20 7 20 40 0 62
-17 90 -56 90 -27 0 -34 -5 -43 -31z m59 -30 c0 -5 -7 -9 -15 -9 -15 0 -20 12
-9 23 8 8 24 -1 24 -14z"/>
<path d="M1420 1134 l0 -65 53 3 52 3 3 54 c4 63 -4 71 -65 71 l-43 0 0 -66z
m70 -4 c0 -20 -5 -30 -15 -30 -10 0 -15 10 -15 30 0 20 5 30 15 30 10 0 15
-10 15 -30z"/>
<path d="M1560 1135 c0 -58 2 -65 20 -65 16 0 20 7 20 33 0 23 3 28 9 18 8
-12 12 -12 25 -2 14 12 16 10 16 -18 0 -24 4 -31 20 -31 18 0 20 7 20 65 0 62
-1 65 -23 65 -15 0 -28 -8 -34 -22 l-10 -23 -12 23 c-6 12 -21 22 -31 22 -18
0 -20 -7 -20 -65z"/>
<path d="M1710 1185 c0 -9 7 -18 15 -21 9 -4 15 -19 15 -35 0 -19 -5 -29 -15
-29 -8 0 -15 -7 -15 -15 0 -11 12 -15 50 -15 38 0 50 4 50 15 0 8 -7 15 -15
15 -10 0 -15 10 -15 29 0 16 6 31 15 35 8 3 15 12 15 21 0 11 -12 15 -50 15
-38 0 -50 -4 -50 -15z"/>
<path d="M1830 1135 c0 -58 2 -65 19 -65 15 0 21 8 24 33 l4 32 13 -32 c9 -20
22 -33 32 -33 15 0 18 9 18 65 0 58 -2 65 -20 65 -14 0 -20 -7 -21 -22 l0 -23
-16 23 c-8 12 -24 22 -34 22 -17 0 -19 -8 -19 -65z"/>
<path d="M1334 967 c-12 -50 36 -89 65 -53 7 8 11 27 9 43 -2 23 -8 29 -35 31
-27 3 -33 -1 -39 -21z m55 -1 c9 -11 10 -20 2 -35 -14 -26 -41 -17 -41 13 0
37 19 47 39 22z"/>
<path d="M1440 921 c0 -5 -9 -11 -20 -14 -19 -5 -21 -15 -11 -79 0 -5 8 -8 16
-8 8 0 15 -4 15 -10 0 -5 7 -10 15 -10 8 0 15 4 15 9 0 5 9 11 19 14 14 3 19
14 19 42 0 28 -5 39 -19 42 -10 3 -19 9 -19 14 0 5 -7 9 -15 9 -8 0 -15 -4
-15 -9z m50 -56 c0 -28 -31 -46 -51 -31 -36 26 -4 86 33 62 10 -6 18 -20 18
-31z"/>
<path d="M1446 871 c-4 -5 -2 -12 3 -15 5 -4 12 -2 15 3 4 5 2 12 -3 15 -5 4
-12 2 -15 -3z"/>
<path d="M1306 860 c-41 -50 -35 -60 34 -60 33 0 60 4 60 10 0 6 -23 10 -51
10 -51 0 -51 0 -36 23 10 14 24 21 41 20 14 -1 26 2 26 8 0 5 -4 9 -9 9 -5 0
-16 2 -24 6 -8 3 -25 -8 -41 -26z"/>
<path d="M1005 746 c-14 -14 -25 -34 -25 -46 0 -11 -7 -23 -15 -26 -17 -7 -21
-34 -5 -34 14 0 13 -33 -2 -48 -7 -7 -22 -12 -35 -12 l-22 0 24 24 c26 26 25
50 -1 60 -38 14 -74 -37 -59 -83 9 -28 52 -38 85 -19 22 12 28 12 38 1 21 -22
51 -15 81 18 23 25 29 28 34 15 4 -10 1 -16 -8 -16 -8 0 -15 -7 -15 -15 0 -20
49 -20 78 1 12 8 22 23 22 32 0 15 -1 15 -17 -1 -16 -15 -18 -14 -35 13 -9 16
-15 36 -12 45 12 31 -16 13 -43 -27 -34 -51 -66 -58 -71 -15 -3 23 0 27 22 27
29 0 44 18 22 26 -12 5 -13 11 -6 24 13 24 13 67 0 75 -5 3 -21 -5 -35 -19z
m21 -41 c-4 -14 -11 -25 -16 -25 -5 0 -7 7 -5 15 3 8 7 22 10 31 9 26 18 8 11
-21z m-106 -74 c0 -12 -20 -25 -27 -18 -7 7 6 27 18 27 5 0 9 -4 9 -9z"/>
<path d="M143 745 c-23 -16 -43 -70 -43 -116 0 -18 -6 -28 -20 -32 -24 -6 -27
-35 -4 -44 8 -3 26 0 38 7 18 9 29 9 44 1 29 -16 67 -14 82 4 12 14 15 14 30
0 24 -22 48 -19 74 10 l24 25 6 -25 c9 -36 22 -31 46 18 18 38 20 39 16 12 -6
-42 6 -59 37 -51 31 7 79 -7 54 -17 -21 -8 -48 -62 -41 -81 16 -41 65 -5 80
59 4 17 21 42 38 57 21 18 26 27 15 28 -8 0 -21 -6 -28 -12 -11 -11 -12 -6 -6
28 5 35 3 42 -12 46 -34 8 -53 -3 -73 -43 -26 -50 -37 -50 -32 0 5 47 -10 59
-38 31 -20 -20 -20 -20 -20 0 0 26 -26 16 -34 -13 -5 -20 -6 -20 -30 6 -14 15
-30 27 -36 27 -13 0 -50 -37 -50 -50 0 -5 -11 -17 -24 -25 -20 -13 -32 -14
-64 -6 l-40 11 6 48 c6 62 18 82 47 82 20 0 25 -5 25 -25 0 -15 6 -25 14 -25
22 0 28 31 11 56 -18 28 -59 32 -92 9z m181 -157 c-3 -5 -12 -8 -20 -8 -14 0
-20 41 -7 54 8 8 33 -35 27 -46z m232 36 c-3 -9 -6 -22 -6 -30 0 -8 -7 -14
-15 -14 -18 0 -19 14 -5 41 13 23 35 26 26 3z m-27 -140 c-10 -23 -13 -25 -16
-11 -3 10 1 25 8 33 17 21 21 11 8 -22z"/>
<path d="M750 747 c-41 -21 -70 -74 -70 -129 0 -65 13 -88 50 -88 27 0 30 4
36 40 6 34 12 43 39 54 35 15 65 50 65 78 0 25 -40 58 -69 58 -14 0 -37 -6
-51 -13z m75 -51 c0 -19 -8 -34 -23 -44 -24 -15 -24 -15 -17 21 6 30 4 37 -9
37 -9 0 -18 -12 -22 -27 -4 -16 -14 -34 -23 -41 -13 -11 -14 -14 -2 -21 15 -9
8 -61 -8 -61 -16 0 -22 50 -11 91 15 55 43 81 83 77 28 -3 32 -7 32 -32z"/>
</g>
</svg>
