<?xml version="1.0" encoding="utf-8" standalone="no"?>
<!DOCTYPE svg PUBLIC "-//W3C//DTD SVG 20010904//EN" "http://www.w3.org/TR/2001/REC-SVG-20010904/DTD/svg10.dtd"[]>
<svg version="1.0" xmlns="http://www.w3.org/2000/svg" width="354" height="342" viewBox="114 132 354 342" preserveAspectRatio="xMidYMid meet">
  <metadata>
Created by potrace 1.10, written by Peter Selinger 2001-2011
</metadata>
  <g transform="translate(0.000000,600.000000) scale(0.100000,-0.100000)" fill="#000000" stroke="none">
    <path d="M2750 4654 c-25 -7 -63 -14 -86 -14 -22 0 -49 -7 -60 -15 -10 -8 -33 -15 -50 -15 -17 0 -37 -7 -44 -15 -7 -8 -25 -15 -41 -15 -15 0 -30 -4 -34 -9 -3 -6 -31 -22 -63 -37 -31 -14 -71 -37 -89 -50 -17 -13 -35 -24 -38 -24 -16 0 -96 -69 -187 -161 -104 -106 -164 -187 -218 -299 -12 -25 -28 -57 -36 -72 -8 -14 -14 -34 -14 -45 0 -10 -7 -27 -15 -37 -8 -11 -15 -31 -15 -45 -1 -14 -7 -37 -15 -51 -8 -14 -14 -38 -15 -55 0 -16 -8 -77 -17 -134 -15 -90 -15 -115 -4 -195 7 -50 16 -116 20 -146 3 -30 10 -61 15 -69 5 -8 13 -31 17 -50 25 -118 137 -333 208 -399 23 -21 30 -38 34 -77 9 -100 60 -182 138 -223 24 -12 51 -26 59 -31 43 -24 95 -35 195 -41 61 -5 126 -13 145 -19 19 -6 88 -11 152 -11 116 0 118 0 124 24 5 22 8 24 27 13 12 -7 26 -18 32 -25 7 -9 28 -12 60 -10 47 3 50 5 53 33 2 22 -5 39 -25 60 -53 58 -66 102 -60 212 5 96 18 153 35 153 5 0 17 -9 28 -21 29 -32 103 -79 125 -79 46 0 100 -49 117 -106 25 -84 6 -166 -46 -197 -24 -14 -32 -26 -30 -41 3 -18 9 -21 47 -19 28 1 48 8 53 18 11 19 45 20 64 1 11 -11 40 -14 119 -14 89 2 108 5 122 20 15 16 15 22 4 40 -12 19 -11 23 5 35 10 7 30 13 45 13 30 0 76 32 90 64 13 28 32 60 46 77 5 8 13 50 16 94 8 98 28 170 48 169 8 -1 24 -4 37 -8 17 -6 22 -4 22 11 -1 45 -60 79 -108 62 -36 -12 -62 -65 -62 -125 0 -25 -7 -59 -16 -76 -13 -26 -20 -29 -44 -25 -15 4 -40 17 -55 31 -29 27 -98 66 -117 66 -6 0 -31 9 -54 20 -34 17 -43 27 -48 55 -12 61 -34 100 -83 148 -48 47 -79 59 -89 33 -3 -8 -15 -16 -26 -19 -14 -4 -19 -11 -15 -21 4 -9 -4 -32 -17 -51 -25 -36 -41 -110 -30 -138 9 -24 -23 -33 -45 -13 -10 9 -23 16 -30 16 -25 0 -31 46 -11 86 11 21 24 42 29 47 6 6 5 19 -1 33 -9 18 -8 30 1 48 13 24 14 23 -36 109 -8 14 -10 44 -6 87 6 74 26 99 79 100 30 0 94 38 121 72 7 8 16 36 19 61 6 44 5 47 -22 58 -16 6 -45 13 -64 16 -24 4 -49 20 -78 50 -42 44 -43 44 -105 41 -51 -2 -62 -6 -65 -21 -2 -11 6 -28 17 -38 12 -11 21 -24 21 -30 0 -6 7 -17 15 -25 8 -9 15 -26 15 -39 0 -13 4 -26 9 -30 5 -3 12 -18 16 -35 5 -21 1 -37 -16 -59 -22 -30 -26 -31 -94 -31 -59 0 -75 4 -90 20 -23 25 -55 26 -55 3 0 -36 -27 -94 -61 -130 -43 -47 -199 -249 -199 -258 0 -3 -11 -21 -24 -38 -14 -18 -29 -43 -35 -57 -6 -14 -15 -32 -20 -40 -40 -72 -62 -157 -68 -267 -6 -105 -15 -115 -58 -60 -31 38 -64 128 -64 172 0 44 57 197 79 210 5 3 10 13 10 22 0 9 7 24 16 34 12 14 17 40 18 102 1 83 1 84 -38 131 -21 26 -43 45 -50 43 -7 -3 -10 -24 -8 -58 5 -80 -2 -96 -43 -103 -29 -6 -38 -14 -55 -53 -11 -25 -20 -56 -20 -69 0 -16 -8 -28 -25 -36 -14 -6 -28 -22 -31 -35 -9 -32 2 -107 15 -111 14 -5 14 -42 1 -42 -25 0 -60 58 -124 205 -7 17 -18 41 -24 55 -24 54 -44 117 -52 165 -4 28 -13 70 -19 95 -16 67 -14 248 4 306 8 27 15 65 15 84 0 19 7 44 15 54 8 11 15 30 15 43 0 13 13 51 29 86 16 34 32 69 35 77 4 8 15 29 26 45 11 17 23 37 27 46 26 56 241 276 295 303 7 3 27 15 43 26 17 11 39 24 50 30 11 6 40 22 64 35 24 14 52 25 61 25 10 0 23 7 30 15 7 8 24 15 39 15 14 1 37 7 51 15 14 8 41 15 60 15 19 0 62 7 95 15 77 19 215 19 285 0 30 -8 71 -15 90 -15 19 0 46 -7 60 -15 14 -8 37 -14 51 -15 15 0 32 -7 39 -15 7 -8 23 -15 35 -15 12 0 28 -7 35 -15 7 -8 20 -15 30 -15 10 0 23 -7 30 -15 7 -8 19 -15 27 -15 8 0 32 -13 53 -30 21 -16 41 -30 45 -30 30 0 269 -257 298 -320 4 -8 16 -28 27 -45 11 -16 22 -37 26 -45 5 -15 17 -43 48 -113 9 -21 16 -45 16 -55 0 -9 6 -34 14 -57 27 -78 40 -254 26 -378 -6 -61 -18 -127 -26 -145 -8 -18 -14 -41 -14 -52 0 -40 -78 -207 -141 -304 -22 -32 -39 -62 -39 -67 0 -5 -4 -9 -10 -9 -5 0 -10 -7 -10 -15 0 -25 15 -17 62 33 108 114 227 339 258 487 5 22 14 54 21 70 17 43 17 452 0 483 -7 13 -16 44 -21 70 -10 59 -44 154 -72 202 -4 8 -11 22 -14 30 -3 8 -10 22 -15 30 -5 8 -15 29 -23 45 -12 25 -50 81 -109 157 -59 77 -239 238 -266 238 -6 0 -11 4 -11 10 0 5 -11 12 -24 16 -14 3 -27 12 -30 20 -3 8 -14 14 -24 14 -11 0 -25 7 -32 15 -7 8 -20 15 -30 15 -10 0 -23 7 -30 15 -7 8 -23 15 -35 15 -13 0 -36 6 -52 14 -50 25 -97 38 -158 46 -33 5 -76 13 -95 19 -51 16 -275 13 -330 -5z m259 -64 c19 -5 38 -15 42 -21 5 -9 15 -9 36 -1 18 6 45 7 69 2 94 -20 131 -32 154 -49 14 -9 48 -23 75 -31 28 -7 61 -20 75 -29 14 -9 37 -21 53 -28 36 -16 35 -33 -3 -33 -40 0 -38 -15 5 -36 34 -16 36 -16 50 2 13 18 14 18 35 -1 20 -18 20 -20 5 -31 -10 -7 -14 -17 -10 -23 11 -19 -31 -12 -58 9 -14 12 -46 29 -70 40 -24 11 -50 27 -57 35 -7 9 -20 13 -28 10 -8 -3 -20 -2 -26 3 -79 57 -365 94 -566 73 -144 -15 -243 -41 -360 -94 -84 -38 -90 -40 -97 -34 -3 4 2 14 13 22 18 14 18 14 -8 15 -15 0 -29 4 -33 9 -6 11 114 77 166 91 20 6 47 18 60 28 13 10 51 24 84 31 33 7 70 17 83 22 29 12 65 12 78 0 13 -13 78 -18 83 -6 3 6 -8 13 -25 16 l-29 6 35 5 c63 9 135 8 169 -2z m-729 -235 c7 -8 20 -15 29 -15 13 -1 13 -3 -3 -15 -27 -21 -49 -19 -64 5 -22 35 12 57 38 25z m-81 -66 c20 -17 22 -22 11 -29 -10 -6 -22 -3 -35 8 -11 9 -22 18 -24 19 -5 3 9 23 17 23 4 -1 18 -10 31 -21z m1449 -18 c3 -8 -1 -12 -9 -9 -7 2 -15 10 -17 17 -3 8 1 12 9 9 7 -2 15 -10 17 -17z m-620 -804 c4 -33 -22 -47 -45 -24 -22 21 -8 59 20 55 16 -2 23 -11 25 -31z m-166 -294 c10 -9 18 -23 18 -32 0 -9 7 -36 15 -61 28 -84 53 -220 41 -220 -6 0 -26 9 -44 20 -44 27 -52 25 -52 -10 0 -16 4 -30 8 -30 5 0 21 -17 35 -37 l26 -37 -32 -14 c-25 -10 -47 -11 -100 -3 -57 8 -78 7 -125 -8 -84 -27 -79 -41 14 -41 l79 0 38 -42 38 -43 -3 -124 c-3 -133 -8 -143 -54 -123 -28 13 -31 43 -9 82 28 50 13 143 -31 188 -21 20 -118 12 -122 -10 -2 -11 6 -22 22 -30 32 -14 51 -71 42 -121 -10 -55 -23 -60 -128 -52 -115 9 -138 21 -138 75 0 43 52 211 78 250 9 14 23 37 32 52 27 49 74 118 115 170 22 28 55 72 74 97 53 72 103 121 125 121 11 0 28 -7 38 -17z m425 -453 c52 -48 143 -100 175 -100 8 0 29 -15 47 -34 42 -43 38 -69 -18 -114 -67 -54 -108 -28 -175 111 -19 40 -50 88 -69 108 -81 83 -47 108 40 29z m54 -312 c30 -37 24 -48 -24 -48 -24 0 -46 3 -49 6 -10 9 23 64 39 64 8 0 23 -10 34 -22z" />
    <path d="M2787 3549 c-31 -24 -67 -99 -67 -140 0 -44 64 -81 133 -77 37 2 51 7 49 16 -1 8 -6 35 -9 60 -4 26 -12 53 -20 60 -7 7 -13 22 -13 33 0 21 -28 69 -40 69 -4 0 -19 -9 -33 -21z" />
    <path d="M4119 2249 c-27 -28 -49 -58 -49 -68 0 -9 -5 -22 -11 -28 -5 -5 -17 -41 -24 -78 -8 -37 -17 -70 -20 -73 -2 -3 -17 -5 -32 -6 -25 -1 -28 -5 -28 -36 0 -31 3 -35 28 -38 26 -3 27 -6 27 -60 0 -66 -15 -85 -98 -127 -58 -29 -72 -30 -113 -10 -34 18 -31 30 8 38 41 8 96 48 112 82 10 21 11 40 5 73 -8 38 -15 48 -47 65 -37 19 -39 19 -80 1 -82 -36 -117 -93 -117 -191 1 -73 15 -100 72 -136 36 -22 150 -24 168 -2 7 8 18 15 24 15 6 0 27 14 46 31 32 30 35 31 45 13 5 -10 23 -31 39 -46 23 -23 37 -28 80 -28 45 0 58 5 93 35 23 19 58 57 77 84 47 64 60 68 85 25 28 -48 27 -54 -14 -54 -71 0 -92 -68 -30 -99 23 -11 35 -11 61 -2 17 6 57 18 87 26 84 22 148 93 132 145 -10 31 -26 24 -71 -27 -40 -46 -64 -51 -64 -14 0 9 -18 45 -40 79 -45 68 -46 74 -25 92 15 13 21 65 8 73 -5 3 -22 3 -38 0 -32 -5 -39 -16 -95 -136 -12 -26 -41 -68 -63 -93 -35 -38 -48 -46 -80 -47 -55 -1 -74 23 -80 104 -6 87 -2 94 64 86 43 -5 59 -3 86 14 18 11 33 26 33 34 0 23 -28 37 -59 30 -45 -10 -46 10 -5 61 37 45 38 49 39 126 0 73 -2 81 -25 98 -38 30 -57 24 -111 -31z m71 -82 c0 -58 -52 -157 -83 -157 -18 0 16 137 46 183 23 36 37 26 37 -26z m-346 -253 c42 -16 0 -94 -52 -97 -38 -3 -41 31 -7 72 28 33 33 35 59 25z" />
    <path d="M1561 2250 c-39 -22 -101 -75 -101 -86 0 -4 -6 -15 -13 -23 -21 -24 -36 -110 -44 -237 l-6 -114 -38 0 c-31 0 -46 -7 -74 -35 -19 -20 -35 -40 -35 -45 0 -4 12 -22 26 -39 22 -27 33 -31 73 -31 41 0 53 5 84 35 20 19 39 35 43 35 4 0 26 -8 48 -18 23 -10 58 -26 79 -35 50 -22 146 -22 185 0 16 9 38 30 48 45 23 34 49 36 65 6 49 -95 185 -90 233 9 10 21 22 45 26 53 4 8 19 16 34 18 25 3 26 2 26 -47 0 -68 16 -101 50 -101 20 0 30 8 43 35 9 20 17 49 17 65 0 16 4 31 9 35 5 3 12 18 16 33 7 30 38 72 53 72 20 0 22 -34 5 -101 -15 -65 -15 -72 0 -104 16 -33 20 -35 64 -35 35 1 56 7 77 25 l30 24 30 -22 c33 -24 65 -24 100 -2 23 15 36 12 36 -10 0 -6 -26 -27 -57 -48 -170 -108 -209 -298 -62 -297 27 1 52 8 65 19 26 21 84 126 84 151 0 10 7 34 15 53 8 20 15 52 15 71 0 18 6 37 13 40 6 3 26 15 42 26 17 11 37 23 45 27 71 32 102 91 60 113 -17 9 -27 4 -70 -36 -27 -25 -54 -43 -60 -39 -12 7 -6 56 17 127 8 26 13 60 11 75 -3 24 -9 29 -43 34 -21 4 -41 12 -43 18 -15 44 -182 -67 -182 -121 0 -9 -4 -19 -9 -23 -6 -3 -13 -26 -17 -51 -7 -51 -35 -77 -72 -67 -26 6 -29 34 -8 84 8 19 17 61 21 95 5 50 4 64 -10 77 -21 21 -26 21 -69 0 -31 -16 -89 -89 -108 -135 -4 -10 -12 -18 -18 -18 -15 0 -12 43 5 76 8 16 15 44 15 62 0 27 -4 32 -23 32 -33 0 -67 -40 -67 -79 0 -44 -16 -71 -43 -71 -30 0 -47 18 -47 50 -1 14 -8 34 -18 45 -27 32 -86 59 -113 52 -34 -9 -109 -59 -109 -73 0 -6 -7 -17 -15 -24 -8 -7 -15 -27 -15 -45 0 -27 -8 -39 -37 -63 -21 -16 -59 -37 -84 -46 -41 -16 -49 -16 -90 -2 -24 9 -56 16 -70 16 -28 0 -89 18 -102 30 -5 4 -2 43 7 85 9 42 16 101 16 130 0 55 23 119 53 150 23 23 85 36 123 26 28 -7 29 -10 34 -82 l5 -74 31 -3 c59 -6 87 59 64 145 -10 34 -23 52 -53 74 -35 26 -48 29 -111 28 -50 0 -81 -6 -105 -19z m1213 -360 c-3 -53 -31 -151 -47 -167 -13 -14 -21 -15 -42 -5 -47 21 -28 119 34 179 31 30 56 26 55 -7z m-734 -5 c0 -14 12 -43 26 -64 25 -38 25 -40 9 -65 -33 -50 -97 -43 -108 13 -8 40 2 102 21 124 23 26 52 22 52 -8z m680 -354 c0 -27 -45 -124 -65 -141 -15 -12 -19 -12 -30 4 -18 24 -2 69 44 125 34 41 51 45 51 12z" />
    <path d="M3385 2248 c-89 -30 -163 -90 -196 -159 -51 -106 -54 -118 -54 -265 0 -121 3 -145 18 -161 9 -11 17 -24 17 -29 1 -19 49 -54 92 -65 40 -11 49 -10 78 7 39 23 68 99 69 182 1 72 13 92 55 92 89 0 198 87 231 183 18 53 18 57 0 104 -23 61 -37 77 -91 102 -48 23 -163 28 -219 9z m177 -95 c24 -23 28 -35 28 -81 0 -42 -5 -60 -26 -87 -22 -29 -94 -75 -118 -75 -11 0 -3 74 14 132 16 55 5 78 -40 78 -40 0 -61 -39 -69 -124 -6 -71 -6 -71 -38 -74 -56 -6 -69 -55 -17 -68 20 -5 24 -12 24 -44 0 -20 -4 -50 -9 -66 -5 -16 -12 -41 -15 -56 -7 -30 -36 -38 -53 -15 -21 25 -36 94 -36 152 1 66 26 182 42 198 6 6 11 19 11 29 0 26 104 126 137 131 15 3 53 3 83 1 42 -4 61 -11 82 -31z" />
  </g>
</svg>